<svg xmlns="http://www.w3.org/2000/svg" viewBox="0 0 64 64" role="img" aria-label="Smart Merch Design simplified logo">
  <rect width="64" height="64" rx="14" fill="#080f24"/>
  <path d="M32 7c-10.5 0-19 8.2-19 18.3 0 6 3.1 10.3 6.4 14 2.1 2.4 3.6 5.2 4.2 8.2h16.8c.6-3 2.1-5.8 4.2-8.2 3.3-3.7 6.4-8 6.4-14C51 15.2 42.5 7 32 7Z" fill="none" stroke="#ffffff" stroke-width="5" stroke-linejoin="round"/>
  <path d="M33 7c10 0 18 8.2 18 18.3 0 6-3.1 10.3-6.4 14-2.1 2.4-3.6 5.2-4.2 8.2H33" fill="none" stroke="#f5891a" stroke-width="5" stroke-linejoin="round"/>
  <path d="M24 51h16M25.5 57h13" stroke="#ffffff" stroke-width="5" stroke-linecap="round"/>
  <text x="32" y="36" text-anchor="middle" font-family="Arial, Helvetica, sans-serif" font-size="24" font-weight="900" fill="#ffffff">S</text>
  <path d="M22 17h6l4 7 4-7h6" fill="none" stroke="#f5891a" stroke-width="5" stroke-linecap="round" stroke-linejoin="round"/>
</svg>
